<?xml version="1.0" standalone="no"?>
<!DOCTYPE svg PUBLIC "-//W3C//DTD SVG 20010904//EN"
 "http://www.w3.org/TR/2001/REC-SVG-20010904/DTD/svg10.dtd">
<svg version="1.0" xmlns="http://www.w3.org/2000/svg"
 width="1280.000000pt" height="1220.000000pt" viewBox="0 0 1280.000000 1220.000000"
 preserveAspectRatio="xMidYMid meet">
<metadata>
Created by potrace 1.15, written by Peter Selinger 2001-2017
</metadata>
<g transform="translate(0.000000,1220.000000) scale(0.100000,-0.100000)"
fill="#607d8b" stroke="none">
<path d="M6910 12194 c-958 -66 -1576 -162 -2215 -345 -833 -239 -1584 -615
-2195 -1098 -340 -269 -677 -604 -949 -946 -653 -818 -1122 -1874 -1360 -3060
-85 -422 -132 -776 -173 -1295 -20 -255 -17 -994 5 -1190 240 -2159 1058
-3506 2429 -4000 163 -59 339 -105 615 -159 424 -84 670 -107 1028 -97 935 26
1947 311 3060 861 1270 628 2480 1495 3539 2535 1365 1341 2150 2687 2103
3605 -18 340 -127 595 -347 815 -195 195 -488 346 -830 429 -134 33 -534 109
-660 125 -313 42 -734 47 -1285 16 -1080 -61 -1869 -51 -2395 30 -205 31 -431
113 -568 204 -407 270 -303 696 350 1428 55 62 238 257 407 433 493 514 630
667 764 853 148 206 205 382 165 513 -34 117 -184 209 -407 251 -58 11 -146
28 -194 39 -181 40 -287 50 -562 53 -148 2 -295 2 -325 0z m-1001 -3831 c103
-103 145 -225 144 -418 -1 -174 -39 -326 -128 -511 -122 -252 -334 -483 -558
-608 -67 -37 -186 -80 -254 -91 -42 -7 -44 -6 -103 54 -69 69 -113 151 -135
257 -94 445 248 1073 708 1299 96 47 179 73 235 74 28 1 43 -9 91 -56z"/>
</g>
</svg>
